<svg width="96" height="107" viewBox="0 0 96 107" fill="none" xmlns="http://www.w3.org/2000/svg">
<g clip-path="url(#clip0_31_278)">
<path d="M77.0015 50.2387C73.7864 53.9815 74.2141 59.6221 77.957 62.8372L78.8889 63.6377C82.117 66.4107 82.486 71.2757 79.713 74.5038C76.9399 77.732 72.075 78.1009 68.8469 75.3279L66.4804 73.2951C61.9454 69.3994 55.1108 69.9178 51.2151 74.4529L44.3273 82.4712C39.3015 88.3219 30.4842 88.9906 24.6335 83.9647C17.639 77.9564 18.2841 66.9388 25.9319 61.7877L28.6125 59.9823C36.1378 54.9137 38.1297 44.7043 33.0614 37.1788L27.5429 28.9847C25.2277 25.547 25.4948 20.9862 28.1955 17.8423C31.5088 13.9852 37.3216 13.5443 41.1788 16.8577L54.5336 28.3296C57.532 30.9052 62.0507 30.5625 64.6264 27.5641C67.2021 24.5657 71.7209 24.223 74.7193 26.7987L78.4543 30.0071C83.5155 34.3547 84.094 41.9821 79.7463 47.0433L77.0015 50.2387Z" fill="black"/>
</g>
<defs>
<clipPath id="clip0_31_278">
<rect width="96" height="107" fill="white"/>
</clipPath>
</defs>
</svg>
